<?xml version="1.0" standalone="no"?>
<!DOCTYPE svg PUBLIC "-//W3C//DTD SVG 20010904//EN"
 "http://www.w3.org/TR/2001/REC-SVG-20010904/DTD/svg10.dtd">
<svg version="1.0" xmlns="http://www.w3.org/2000/svg"
 width="376.000000pt" height="389.000000pt" viewBox="0 0 376.000000 389.000000"
 preserveAspectRatio="xMidYMid meet">

<g transform="translate(0.000000,389.000000) scale(0.100000,-0.100000)"
fill="#000000" stroke="none">
<path d="M1082 3254 l-782 -496 0 -158 0 -158 -27 -11 c-70 -30 -78 -45 -83
-155 l-5 -101 -63 -5 c-78 -6 -96 -24 -89 -88 3 -24 10 -49 16 -55 7 -7 40
-14 74 -17 l62 -5 5 -300 c5 -290 6 -302 29 -348 13 -26 36 -58 52 -69 28 -21
29 -26 29 -97 l0 -76 766 -485 c421 -267 776 -490 788 -497 21 -11 88 29 804
484 l782 496 0 77 0 78 56 27 c69 34 126 92 164 168 41 83 53 153 48 287 -6
135 -27 202 -89 280 -40 51 -57 64 -185 138 -118 70 -114 63 -50 102 l56 34
-2 229 -3 229 -780 494 c-429 272 -782 494 -785 494 -3 0 -357 -223 -788 -496z
m1411 -344 l595 -375 -59 -37 -58 -38 -533 336 c-293 185 -540 342 -548 349
-13 11 -103 -43 -568 -337 l-553 -350 -55 37 -55 36 606 384 c379 240 612 382
620 377 7 -4 281 -176 608 -382z m-559 -242 l51 -33 -72 -5 c-86 -6 -113 -25
-113 -79 l0 -36 -262 -165 c-243 -153 -265 -165 -302 -162 -35 3 -113 39 -104
47 14 13 735 465 742 465 5 0 32 -15 60 -32z m499 -317 c97 -62 177 -114 177
-116 0 -10 -89 -55 -111 -57 -17 -1 -79 32 -187 101 l-162 103 0 74 0 75 53
-34 c28 -18 132 -84 230 -146z m-543 -416 c0 -90 -4 -166 -8 -169 -4 -2 -50
22 -101 54 -84 52 -96 63 -111 103 l-17 45 111 70 c61 39 114 68 118 66 5 -3
8 -79 8 -169z m-1084 -11 c-12 -32 -27 -54 -36 -54 -19 0 -102 55 -100 66 1 5
25 23 53 41 49 30 53 31 77 16 l27 -15 -21 -54z m547 -283 c55 -35 67 -47 67
-69 0 -28 -18 -102 -25 -102 -3 0 -255 158 -263 165 -2 2 23 19 54 39 51 32
60 34 78 22 12 -7 51 -32 89 -55z m1205 34 c28 -16 52 -32 52 -35 0 -3 -16
-15 -34 -27 l-35 -22 -34 47 c-26 35 -33 50 -25 60 6 7 14 11 17 10 3 -2 30
-16 59 -33z m868 -93 c-3 -2 -26 9 -51 25 l-46 30 48 31 48 32 3 -56 c2 -31 1
-59 -2 -62z m-1132 -47 c51 -80 53 -68 -13 -108 -32 -21 -63 -37 -68 -37 -16
0 -43 35 -53 68 -8 30 -7 33 48 66 31 20 60 36 63 36 4 0 14 -11 23 -25z
m-567 -131 c67 -42 73 -48 73 -79 0 -47 28 -63 121 -73 l74 -7 -63 -38 -62
-39 -146 92 c-141 90 -144 93 -129 114 9 11 23 33 33 48 9 16 19 28 21 28 2 0
37 -21 78 -46z m-439 -315 c279 -177 525 -334 546 -349 l39 -27 510 324 509
324 54 -37 c30 -21 53 -38 52 -39 -2 -2 -256 -163 -565 -359 l-562 -356 -558
354 c-307 194 -577 365 -601 380 -38 23 -42 29 -30 43 14 18 79 62 91 62 5 1
236 -144 515 -320z"/>
</g>
</svg>
